# xmcd CD database file
# Copyright (C) 1996 Ti Kan
#
# Track frame offsets:
#  150
#  12375
#  23847
#  33680
#  45907
#  58592
#  70227
#  84072
#  96422
#  110972
#
# Disc length: 1664 seconds
#
# Revision: 1
# Processed by: cddbd v1.4b41PL1 Copyright (c) Steve Scherf et al.
# Submitted via: CDWizzard Release:4.12
#
DISCID=7e067e0a
DTITLE=Sonny James - Sonny James - American Originals
DYEAR=1900
DGENRE=
TTITLE0=A Little Bit South of Saskatoon
TTITLE1=A Little Band of Gold
TTITLE2=Abilene
TTITLE3=Come On In
TTITLE4=In the Jailhouse Now
TTITLE5=What in the World's Come Over You
TTITLE6=When Something Is Wrong With My Baby (Something's Wrong With Me)
TTITLE7=When the Snow Is On the Roses
TTITLE8=A Mi Esposa Con Amor
TTITLE9=Is It Wrong (For Loving You)
EXTD=
EXTT0=
EXTT1=
EXTT2=
EXTT3=
EXTT4=
EXTT5=
EXTT6=
EXTT7=
EXTT8=
EXTT9=
PLAYORDER=
